# xmcd
#
# Track frame offsets:
#	150
#	5364
#	17001
#	37075
#	42466
#	62153
#	72093
#	89684
#	96720
#	110238
#	177432
#	186793
#	208936
#	267603
#	274406
#	279307
#	291860
#
# Disc length: 4039 seconds
#
# Revision: 0
# Processed by: cddbd v1.5.2PL0 Copyright (c) Steve Scherf et al.
# Submitted via: audiograbber 1.83.01
#
DISCID=170fc511
DTITLE=Antonio Carlos Jobim and Luiz Bonfá - Black Orpheus
DYEAR=1959
DGENRE=Soundtrack
TTITLE0=Antonio Carlos Jobim - A Felicitade/Batucada
TTITLE1=Antonio Carlos Jobim - A Felicitade
TTITLE2=Antonio Carlos Jobim - Batucata/Frevo de Orfeu
TTITLE3=Antonio Carlos Jobim - O Nosso Amor
TTITLE4=Antonio Carlos Jobim - O Nosso Amor
TTITLE5=Luiz Bonfá - Manha de Carnaval
TTITLE6=Luiz Bonfá - Manha de Carnaval/ Manha de Carnaval - Orfeu
TTITLE7=Luiz Bonfá - Manha de Carnaval
TTITLE8=Luiz Bonfá - Manha de Carnaval - Euridice
TTITLE9=Antonio Carlos Jobim - O Nosso Amor
TTITLE10=Antonio Carlos Jobim - A Felicitade
TTITLE11=Traditional - Bateria da capela
TTITLE12=Traditional - Pontos de Macumba/Scene de la Macumba
TTITLE13=Antonio Carlos Jobim - Frevo de Orfeu
TTITLE14=Antonio Carlos Jobim - A Felicitade
TTITLE15=Antonio Carlos Jobim - A Felicitade
TTITLE16=Luiz Bonfá - Samba de Orfeu
EXTD=
EXTT0=
EXTT1=
EXTT2=
EXTT3=
EXTT4=
EXTT5=
EXTT6=
EXTT7=
EXTT8=
EXTT9=
EXTT10=
EXTT11=
EXTT12=
EXTT13=
EXTT14=
EXTT15=
EXTT16=
PLAYORDER=
